<?xml version="1.0" encoding="utf-8"?>
<!DOCTYPE svg PUBLIC "-//W3C//DTD SVG 1.0//EN" "http://www.w3.org/TR/2001/REC-SVG-20010904/DTD/svg10.dtd">
<svg version="1.0" xmlns="http://www.w3.org/2000/svg" width="790px" height="1114px" viewBox="0 0 790 1114" preserveAspectRatio="xMidYMid meet">
 <g fill="#000000">
  <path d="M441 1057 c0 -0.5 -1.3 -1.6 -3 -2.5 -1.6 -0.9 -3 -2.2 -3 -2.9 0 -0.8 -0.7 -1.6 -1.5 -2 -0.8 -0.3 -1.5 -1.7 -1.5 -3.1 0 -1.4 -0.4 -2.5 -0.8 -2.5 -1.5 0 -4.3 -14.3 -4.9 -24.6 -0.6 -10.5 0.4 -19.1 3.5 -29.6 0.9 -3.2 2 -5.8 2.5 -5.8 0.4 0 0.7 -0.6 0.7 -1.3 0 -2.2 2.4 -6.7 3.7 -6.7 2.6 0 3.2 -8.4 3.8 -60.5 0.7 -53.6 0.7 -54.1 -1.5 -60.5 -1.2 -3.5 -2.8 -7.3 -3.6 -8.4 -0.8 -1.1 -1.4 -2.7 -1.4 -3.6 0 -0.8 -1.4 -4.2 -3 -7.5 -1.6 -3.3 -3 -6.4 -3 -6.8 0 -0.4 -0.9 -2.6 -1.9 -4.8 -1.1 -2.2 -2.3 -5.3 -2.6 -6.9 -0.4 -1.7 -1.1 -3.2 -1.6 -3.5 -0.5 -0.4 -0.9 -1.6 -0.9 -2.7 0 -1.2 -0.6 -2.9 -1.3 -3.7 -0.8 -0.9 -2 -3.2 -2.7 -5.1 -2.2 -5.8 -4.1 -10.4 -5.6 -13.2 -0.8 -1.4 -1.4 -3.3 -1.4 -4.2 0 -0.9 -0.4 -1.6 -0.8 -1.6 -1.5 0 -1.3 -9.5 0.3 -12.6 0.8 -1.6 1.5 -3.3 1.5 -3.9 0 -0.5 0.7 -2.9 1.6 -5.2 1.7 -4.3 3.4 -5.7 3.4 -2.7 0 1.5 2.2 7.4 6.2 16.2 1 2.4 2.1 5.7 2.5 7.3 0.3 1.5 1.2 3.4 1.9 4 0.8 0.6 1.4 1.7 1.4 2.3 0 1.1 3.8 9.9 6 13.8 0.6 1 1 2.7 1 3.8 0 1.1 0.4 2 0.9 2 0.7 0 1.6 2.2 2.3 5.7 0.1 0.5 1.8 4.2 3.9 8.3 2.2 4.1 3.9 8.4 3.9 9.6 0 1.1 0.4 2.4 0.8 3 0.5 0.5 2.1 3.9 3.6 7.6 l2.8 6.7 -0.6 37.8 c-0.3 20.8 -0.6 49 -0.7 62.6 l-0.2 24.8 3.1 3.2 c3 3.2 8.9 16.3 7.8 17.4 -0.3 0.4 -0.1 1.2 0.4 1.8 1.4 1.7 1.4 27.8 0 35.5 -0.6 3.6 -2.3 8.7 -3.6 11.3 -1.3 2.7 -2.4 5.4 -2.4 6 0 0.7 -0.9 1.8 -2 2.5 -1.1 0.7 -2 1.8 -2 2.6 0 0.8 -1.6 1.7 -3.7 2.1 -6.4 1.3 -8.3 1.4 -8.3 0.5z m6.5 -26.2 c1.5 -1.2 3.4 -3.6 4.1 -5.4 1.6 -3.9 1.9 -20.4 0.4 -20.4 -0.5 0 -1 -1.1 -1 -2.5 0 -1.4 -0.7 -2.8 -1.5 -3.1 -0.8 -0.4 -1.5 -1.2 -1.5 -2 0 -2.2 -3.1 -1.6 -5.6 1.1 -3.2 3.5 -4.8 9.6 -4.7 18.5 0.1 7.3 1.1 10.7 4.3 14.2 1.9 2.2 2.2 2.2 5.5 -0.4z"/>
  <path d="M317.5 974 c-0.3 -1.1 -0.4 -2.4 0 -2.9 0.9 -1.5 2.8 -11.3 7 -35.6 1.4 -8.2 3.2 -18.6 4 -23 1.8 -9.4 3.3 -17.8 4 -22 0.2 -1.6 1.1 -6.4 2 -10.5 0.9 -4.1 2 -10.4 2.5 -14 0.5 -3.6 1.4 -9 2 -12 0.6 -3 1.5 -8 2 -11 0.6 -3 1.4 -7.5 1.9 -10 1.5 -7.7 5 -26.3 5.6 -30 0.3 -1.9 1 -5.7 1.6 -8.5 0.5 -2.7 1.4 -7.5 1.9 -10.5 0.4 -3 1.5 -8.6 2.3 -12.5 2 -9.1 2.7 -12.9 6.7 -36.5 1.9 -11.5 3.1 -17.6 7.6 -41 2.5 -13 3.3 -17.3 4.4 -25 0.7 -4.1 1.5 -8.2 1.8 -9 0.3 -0.8 1.1 -5.3 1.8 -10 0.7 -4.7 1.7 -10.7 2.2 -13.5 2.7 -13.9 3.1 -16.9 2.4 -18.1 -0.6 -1.1 -8.5 -1.4 -40.7 -1.4 -22 -0.1 -41 0.2 -42.2 0.5 -1.9 0.6 -2.3 0.3 -2.3 -1.4 0 -1.8 2.7 -16.9 6.1 -33.6 6.1 -30.5 7.9 -40.5 7.9 -44 0 -1.7 0.4 -3.5 0.9 -4 0.5 -0.6 2.5 -9.5 4.5 -20 2 -10.4 4.1 -21 4.6 -23.5 0.5 -2.5 1.7 -9.2 2.5 -15 0.9 -5.8 2 -11.3 2.6 -12.2 0.5 -1 0.9 -3.1 0.9 -4.8 0 -1.6 0.9 -6.4 1.9 -10.7 1.1 -4.3 2.7 -12.5 3.6 -18.3 0.9 -5.8 2.3 -12.8 3.1 -15.6 0.8 -2.9 1.4 -5.6 1.3 -6 -0.1 -0.5 0 -1.6 0.4 -2.4 0.3 -0.8 1.2 -5.8 2.1 -11 0.8 -5.2 2 -11.7 2.6 -14.5 0.5 -2.7 1.7 -9 2.6 -14 0.9 -4.9 2 -10.8 2.5 -13 1 -4.7 2.5 -12.6 3.4 -17.5 0.3 -1.9 1.2 -6.2 2 -9.5 0.8 -3.3 2.1 -10.5 3 -16 2.3 -14.9 4.7 -26.5 5.4 -26 0.4 0.2 4.9 0.4 10.1 0.5 5.2 0 13.3 0.1 18 0.2 4.7 0 16.1 0.1 25.3 0.2 19.2 0.1 19 0 17.6 8.1 -1.5 9.1 -3.7 20.9 -5.4 28.5 -3.5 15.4 -4.6 20.7 -6 29 -1.6 9.8 -2.6 14.9 -5.5 28 -2 9.3 -5.1 25.1 -7 35.8 -0.5 3 -1.2 6.3 -1.6 7.4 -0.4 1.5 -0.3 1.8 0.6 1.3 1 -0.6 1.2 0 0.6 2.6 -0.3 1.8 -1.2 3.7 -2 4.1 -0.9 0.5 -1.4 3 -1.5 7.5 -0.1 3.9 -0.7 7.3 -1.5 8.2 -1.3 1.7 -4.2 13.4 -5.7 23.6 -0.5 3.3 -2.5 13.2 -4.4 22.1 -1.9 9 -3.5 18.1 -3.5 20.4 l0 4.1 41 -0.3 c32.6 -0.2 41.1 0 41.5 1 0.2 0.7 -0.2 2.9 -0.9 5 -3.1 8 -7.6 21.3 -11.1 32.7 -2.1 6.6 -5 15.4 -6.5 19.5 -1.5 4.1 -4.9 14.3 -7.5 22.5 -2.7 8.3 -5.4 16.4 -6.1 18 -0.6 1.7 -3.8 11.1 -6.9 21 -3.2 9.9 -6.8 21.2 -8.2 25 -3.9 11.3 -8 23.5 -10.3 31 -1.2 3.9 -2.7 8.4 -3.4 10 -1.3 3 -6.5 19.3 -8.8 27.5 -0.6 2.5 -1.5 4.7 -1.8 5 -0.3 0.3 -1.6 4.1 -2.9 8.5 -1.2 4.4 -2.9 10 -3.8 12.5 -6.2 18.2 -7.4 21.7 -8.2 23.5 -0.5 1.1 -1.4 4 -2.1 6.5 -0.7 2.5 -2 6.5 -3 9 -0.9 2.5 -3.6 10.6 -6 18 -5.2 16.6 -4.6 14.6 -8.7 26 -1.9 5.2 -3.8 11.1 -4.3 13 -0.5 1.9 -1.3 5.1 -1.9 7 -0.5 1.9 -1.3 4.6 -1.7 6 -0.4 1.4 -1 3 -1.4 3.5 -0.4 0.6 -2.2 5.5 -3.9 11 -1.8 5.5 -3.7 10.8 -4.2 11.7 -0.5 1 -0.9 2.5 -0.9 3.4 0 0.9 -0.6 3 -1.4 4.7 -0.7 1.8 -3.2 9.1 -5.6 16.2 -4.2 13.1 -8.4 25.3 -10 29 -0.5 1.1 -1.7 4.7 -2.6 8 -2.4 8.7 -7.6 24.5 -7.9 24.5 -0.2 0 -0.6 -0.9 -1 -2z"/>
  <path d="M263.4 954.6 c-0.3 -0.9 -1 -1.4 -1.5 -1.1 -1.1 0.7 -4.9 -2.6 -4.9 -4.2 0 -0.7 -0.4 -1.3 -1 -1.3 -0.5 0 -1 -0.9 -1 -2 0 -1.1 -0.4 -2 -0.8 -2 -1.2 0 -3.4 -6.6 -4.7 -14.3 -1.2 -7.4 -1 -30.3 0.5 -35.2 0.4 -1.6 1.1 -4.7 1.5 -6.8 0.6 -3.9 4.5 -11.7 7.4 -15.1 2.7 -3.1 8.4 -5.6 10.4 -4.5 0.9 0.6 2.1 0.7 2.7 0.4 0.5 -0.3 1.4 0.4 2 1.5 1.7 3.2 3.6 2.4 5 -2.2 0.7 -2.4 1.8 -5.2 2.6 -6.3 0.8 -1.1 1.4 -2.7 1.4 -3.7 0 -1 0.5 -1.8 1 -1.8 0.6 0 1 -0.9 1 -2 0 -1.1 0.4 -2 0.9 -2 0.9 0 2.4 -3.8 2.2 -5.4 -0.1 -0.4 0.3 -1.3 0.8 -2 1.9 -2.3 7 -12.9 7.7 -16 0.3 -1.7 1 -3.3 1.3 -3.6 0.4 -0.3 1.9 -3.2 3.5 -6.5 1.5 -3.3 3.1 -6.8 3.7 -7.7 0.5 -1 0.9 -2.3 0.9 -2.8 0 -0.6 1.1 -2.8 2.5 -4.8 1.4 -2 2.5 -4.5 2.5 -5.4 0 -1 0.5 -1.8 1 -1.8 0.6 0 1 -0.8 1 -1.8 0 -1 0.7 -2.7 1.5 -3.8 0.8 -1 1.5 -2.9 1.5 -4.1 0 -1.3 0.3 -2.3 0.8 -2.3 0.8 0 3.2 -4.9 3.2 -6.7 0 -0.7 0.4 -1.3 0.8 -1.3 0.4 0 2 -2.8 3.6 -6.2 1.5 -3.5 3.4 -7.7 4.2 -9.5 0.8 -1.7 1.4 -3.5 1.4 -4.1 0 -0.5 0.7 -1.3 1.6 -1.6 0.9 -0.4 1.4 -0.9 1.1 -1.2 -0.3 -0.4 0.9 -3.7 2.8 -7.5 1.9 -3.8 3.5 -7.6 3.5 -8.6 0 -1.1 0.3 -1.4 1 -0.7 0.7 0.7 0.2 4.8 -1.4 12.4 -1.3 6.3 -2.6 13.3 -2.9 15.5 -1.3 9.6 -5.8 28.9 -7.5 32.8 -1.1 2.3 -3 6.7 -4.3 9.7 -1.3 3 -2.9 6.2 -3.6 7.1 -0.7 0.8 -1.3 2.2 -1.3 3 0 0.8 -0.9 2.5 -2 3.9 -1.1 1.4 -2 3.5 -2 4.8 0 2.1 -1.2 5 -3.6 8.2 -0.6 0.8 -1.7 3.1 -2.4 5 -0.8 1.9 -2.1 4.6 -2.9 5.9 -0.8 1.3 -1.6 3.2 -1.8 4.2 -0.1 1 -1.1 3.3 -2.2 5.2 -1.8 3.3 -2.8 5.2 -5.1 9.7 -0.5 1.1 -1 2.7 -1 3.5 0 0.8 -0.4 1.5 -1 1.5 -0.5 0 -1 0.8 -1 1.9 0 1 -0.8 2.9 -1.8 4.2 -1.1 1.3 -2.2 3.7 -2.6 5.4 -0.4 1.6 -1.1 3.2 -1.4 3.5 -1.9 1.4 -3.8 9.7 -3.1 13.5 1.3 6.5 1 22.5 -0.5 30 -2.7 14 -10.3 27.5 -15.5 27.5 -1.1 0 -2.6 0.3 -3.5 0.6 -1 0.4 -1.8 0 -2.2 -1z m8.2 -28.8 c2.4 -3.7 2.6 -5.1 2.8 -14.8 0.1 -9 -0.2 -11.1 -1.6 -12.7 -1 -1.1 -1.8 -2.4 -1.8 -3 0 -2.6 -6.5 -3.1 -7.4 -0.5 -0.4 0.9 -1.3 2.9 -2.1 4.3 -3.5 6.2 -2.6 26.6 1.3 29.6 3.3 2.4 6 1.5 8.8 -2.9z"/>
  <path d="M501.2 887.9 c-1.2 -0.5 -2.2 -1.3 -2.2 -1.8 0 -0.5 -0.9 -1.3 -2 -1.6 -1.1 -0.3 -2 -1.2 -2 -2 0 -0.7 -0.8 -3 -1.9 -5.2 -2.6 -5.4 -4.1 -10.3 -4.7 -16 -1.1 -9.2 -1 -22.8 0 -28.3 1.3 -6.4 1.2 -11.8 -0.2 -13.2 -0.6 -0.6 -0.8 -1.7 -0.5 -2.4 0.3 -0.8 0 -1.4 -0.6 -1.4 -0.6 0 -1.1 -0.6 -1.1 -1.3 0 -0.7 -1.1 -3.7 -2.5 -6.5 -1.4 -2.9 -2.5 -5.9 -2.5 -6.7 0 -0.8 -0.4 -1.5 -1 -1.5 -0.5 0 -1 -0.7 -1 -1.6 0 -0.9 -0.7 -3 -1.6 -4.7 -3.1 -6 -3.4 -6.7 -3.4 -8.7 0 -1.1 -0.4 -2 -1 -2 -0.5 0 -1.2 -1.2 -1.6 -2.7 -0.4 -1.6 -1.2 -3.7 -1.8 -4.8 -0.7 -1.1 -1.8 -4.1 -2.6 -6.7 -0.7 -2.7 -1.7 -4.8 -2.1 -4.8 -0.5 0 -0.9 -0.4 -0.9 -0.9 0 -0.5 -0.5 -2.2 -1.2 -3.8 -0.6 -1.5 -1 -3.2 -0.9 -3.6 0.1 -0.5 -0.8 -2 -1.9 -3.4 -1.1 -1.4 -2 -3.4 -2 -4.4 0 -1 -0.4 -2.1 -1 -2.4 -0.5 -0.3 -1 -1.7 -1 -2.9 0 -1.3 -0.7 -2.9 -1.5 -3.6 -0.8 -0.7 -1.5 -2.3 -1.5 -3.6 0 -1.3 -0.3 -2.4 -0.7 -2.4 -0.9 0 -3.3 -4.8 -3.3 -6.6 0 -1.3 -2.4 -7 -8.7 -20.4 -4.9 -10.4 -5.2 -14.2 -1.9 -21.1 0.9 -1.9 2 -5.5 2.4 -7.9 0.4 -2.5 1.2 -4.5 1.7 -4.5 0.6 0 1.6 2 2.3 4.5 0.8 2.5 2 5.9 2.7 7.5 0.7 1.7 1.8 4.7 2.5 6.8 0.7 2.2 1.8 5.1 2.6 6.5 0.8 1.5 1.4 3.2 1.4 3.8 0 0.7 0.7 1.4 1.5 1.8 0.8 0.3 1.5 1.3 1.5 2.3 0 1 0.9 3.5 2 5.6 1.1 2 2 4.5 2 5.4 0 1 0.7 2.7 1.5 3.7 0.8 1 1.2 2.3 0.9 2.7 -0.3 0.5 -0.1 0.9 0.5 0.9 0.5 0 1.5 1.7 2.2 3.8 1.1 3.6 9 21.9 11 25.4 0.5 1 0.9 2.2 0.9 2.8 0 1.2 2.8 7.6 7.1 16.6 1.6 3.4 2.9 6.5 2.9 7 0 0.4 2 5 4.5 10.1 2.5 5 4.5 10.1 4.5 11.3 0 2.6 2.9 3.8 4.4 1.8 1.3 -1.7 6.4 -2.9 7.2 -1.7 0.2 0.4 1.1 0.6 1.8 0.3 0.8 -0.3 3.2 1.3 5.4 3.5 3 3.1 4.6 6 6.8 12.8 2.6 8 2.9 10.2 3 23.8 0.2 12 -0.2 16.5 -1.8 22.5 -1 4.1 -2.2 8.6 -2.5 10 -0.5 2.2 -3.6 7.1 -7.7 12.4 -1.6 2 -8.7 2.9 -12.4 1.5z m8.1 -25.3 c0.9 -0.7 1.7 -1.8 1.7 -2.5 0 -0.6 0.4 -1.1 0.8 -1.1 2.5 0 4.1 -16.7 2.3 -22.6 -0.5 -1.6 -1.2 -4 -1.5 -5.4 -0.3 -1.5 -1.7 -3 -3.5 -3.8 -2.6 -1.1 -3.3 -1.1 -5.5 0.3 -3 2 -4.5 6.6 -5.1 16.2 -0.4 7.5 0.8 13.3 3.9 17.6 2.2 3 4.2 3.4 6.9 1.3z"/>
  <path d="M242.1 844.6 c-1.9 -0.7 -3.7 -1.8 -3.9 -2.5 -0.3 -0.8 -1.3 -2.2 -2.3 -3.2 -1.7 -1.7 -2.4 -4.1 -1.6 -5.3 0.1 -0.2 -0.6 -1.2 -1.5 -2.3 -1 -1.1 -2.4 -5.9 -3.4 -11.7 -3.7 -22.2 1.2 -48.4 10.7 -57.6 2.7 -2.5 4 -3 8.3 -3 4.5 0 5.4 0.4 7.5 3 1.3 1.6 2.7 2.8 3.1 2.5 1 -0.6 4 -6.4 4 -7.6 0 -1.3 7.3 -16.3 8.3 -17 0.4 -0.3 0.7 -1 0.5 -1.5 -0.2 -0.5 0.7 -2.5 1.9 -4.4 1.2 -1.9 3.1 -6.1 4.3 -9.2 1.2 -3.2 2.6 -5.8 3.1 -5.8 0.5 0 1.2 -1.8 1.5 -4 0.4 -2.2 1.3 -4.5 2 -5.1 0.8 -0.6 1.4 -2.2 1.4 -3.4 0 -1.2 0.7 -2.8 1.5 -3.5 0.8 -0.7 1.5 -2.1 1.5 -3.1 0 -1.1 0.5 -1.9 1 -1.9 0.6 0 1 -0.6 1 -1.4 0 -0.8 1.7 -4.8 3.9 -8.9 2.1 -4 4.4 -9.1 5.1 -11.2 0.7 -2.2 2.1 -4.8 3.1 -5.9 1.1 -1.1 1.9 -2.4 1.9 -2.9 0 -0.9 1.3 -4.1 4.9 -11.7 1.6 -3.5 1.6 -3.5 7.6 -3.2 9.1 0.3 10.4 0.8 9.8 3.4 -0.3 1.3 -1.6 3.7 -2.9 5.5 -1.3 1.7 -2.4 3.9 -2.4 4.8 0 0.8 -0.6 1.8 -1.4 2.1 -0.8 0.3 -1.7 2.1 -2.1 4.1 -0.6 3.2 -2.4 7.6 -6.1 14.5 -2.5 4.6 -10.9 22.2 -16 33.3 -1.5 3.3 -4.9 10.6 -7.5 16.3 -2.7 5.7 -5.2 11.4 -5.5 12.7 -0.3 1.4 -1 2.5 -1.5 2.5 -0.5 0 -0.9 0.6 -0.9 1.3 0 0.7 -2.2 5.7 -4.8 11.2 -2.7 5.5 -5.5 11.6 -6.2 13.5 -0.8 1.9 -1.9 4 -2.6 4.5 -0.8 0.7 -1.3 6.8 -1.7 18.7 -0.3 13.5 -0.8 18.4 -2.1 20.9 -0.9 1.7 -1.6 4.2 -1.6 5.3 0 2.8 -4.2 11.5 -7.1 14.8 -2.9 3.2 -8.1 4.2 -12.8 2.4z m7.9 -26.1 c0 -0.4 0.7 -1.3 1.5 -2.1 0.8 -0.8 2 -3.4 2.6 -5.7 1.4 -5.2 1.6 -17.7 0.2 -18.6 -0.6 -0.3 -1.4 -1.7 -1.8 -3 -0.4 -1.4 -1.8 -3.6 -3.1 -5 -2 -2.2 -2.4 -2.3 -3 -0.8 -0.3 0.9 -1.2 1.7 -1.9 1.7 -2.6 0 -4.9 7.2 -4.9 15.5 -0.1 10.9 1 15.1 4.5 18.6 2.6 2.6 3.2 2.8 4.5 1.5 0.7 -0.8 1.4 -1.7 1.4 -2.1z"/>
  <path d="M565 675 c0 -0.6 -1.1 -1.5 -2.4 -2.1 -1.4 -0.7 -2.7 -2.1 -3 -3.3 -0.3 -1.2 -1.3 -3 -2.3 -4.1 -1.9 -2 -4 -8.9 -5 -15.7 -0.3 -2.1 -0.8 -3.8 -1.2 -3.8 -0.3 0 -15.8 -0.1 -34.3 -0.3 -18.6 -0.1 -33.8 -0.5 -33.8 -0.9 0 -0.4 -2.1 -0.5 -4.8 -0.2 l-4.7 0.4 -2.4 -6.7 c-2.5 -6.9 -6.4 -16.4 -8.1 -19.5 -1.5 -2.7 -1.2 -5.5 1.4 -13.2 1.3 -3.9 2.7 -8.4 3 -9.9 0.9 -3.7 2.9 -2.9 3.7 1.4 0.3 1.9 1.4 4.8 2.3 6.4 0.9 1.7 1.6 3.8 1.6 4.7 0 0.9 0.5 2 1 2.3 0.6 0.3 1 1.3 1 2.2 0 0.8 0.8 2.5 1.8 3.6 1.7 2.2 2.1 2.2 35.9 2.2 25.8 0 34.5 -0.3 35.4 -1.2 0.7 -0.7 2 -4.1 3 -7.5 2.1 -7.9 4.1 -12.8 5.1 -12.8 0.4 0 0.8 -1 0.8 -2.2 0 -1.2 0.3 -1.8 0.7 -1.5 0.3 0.4 1.7 -0.5 3 -2 1.9 -1.9 3.8 -2.7 7.5 -3.1 4.6 -0.4 5.1 -0.3 7.8 2.9 1.6 1.9 3.4 4.8 4.1 6.4 0.7 1.7 1.8 3.7 2.4 4.5 1.7 2 4.4 17 4.7 25 0.3 9.7 -1.3 25.2 -2.9 27.6 -0.7 1.1 -1.1 2.3 -0.8 2.6 0.6 0.6 -2.1 6.7 -5.4 12.1 -1.6 2.5 -3 3.7 -4.6 3.7 -1.2 0 -2.8 0.7 -3.5 1.5 -1.4 1.7 -7 2.1 -7 0.5z m7 -26 c0.4 0 2 -2.3 3.4 -5.2 2 -4 2.6 -6.7 2.6 -11.9 0 -3.7 -0.4 -7.1 -1 -7.4 -0.5 -0.3 -1 -1.9 -1 -3.4 0 -2.8 -3.8 -7.1 -6.3 -7.1 -5.3 0 -10.3 16.4 -7.6 25 2.6 8.6 4.7 11.4 7.7 10.4 0.8 -0.2 1.7 -0.4 2.2 -0.4z"/>
  <path d="M182.7 619.2 c-1.5 -0.7 -3.4 -2.6 -4.2 -4.3 -0.9 -1.6 -2 -2.9 -2.5 -2.9 -2.2 0 -6.9 -21.6 -7 -32.2 0 -9.9 1.5 -23.1 3.2 -26.8 0.6 -1.4 1.4 -3.4 1.8 -4.5 1.7 -4.4 2.1 -5.1 3.8 -8 1.9 -3.2 7.8 -6.6 9.9 -5.8 0.7 0.3 1.3 0.1 1.3 -0.5 0 -0.5 2.2 0.2 5 1.7 2.7 1.4 5 3.1 5 3.7 0 0.5 0.6 1.6 1.3 2.3 0.6 0.6 1.2 1.5 1.2 1.9 0.1 0.4 0.8 2.7 1.7 5.2 0.9 2.5 2.1 7.1 2.8 10.3 0.6 3.1 1.4 5.7 1.8 5.7 0.4 0 1.9 -0.7 3.5 -1.4 1.5 -0.8 2.7 -1.2 2.7 -0.8 0 0.4 1.7 0.8 3.8 0.9 2 0 5.5 0.4 7.7 0.7 8.1 1.2 28.5 1.2 28.5 -0.1 0 -1.1 6.4 -0.9 9.8 0.2 0.6 0.2 1.2 0 1.2 -0.5 0 -1.4 3.1 -1.2 6.3 0.4 1.5 0.8 2.7 1.1 2.7 0.7 0 -0.5 2.5 -0.8 5.5 -0.8 4 0 5.5 0.4 5.5 1.3 0 2.3 -4.9 24.6 -5.5 25.3 -0.6 0.5 -15.1 0.5 -59.7 -0.2 -14.5 -0.2 -14.8 -0.1 -14.8 4.4 0 1.1 -0.9 3.9 -2 6.1 -1.1 2.3 -2 5.2 -2 6.4 0 1.4 -2 4.5 -4.8 7.5 -5.3 5.7 -8.4 6.6 -13.5 4.1z m10.2 -27.7 c0.2 -1.1 0.8 -2.3 1.3 -2.6 1 -0.7 1.5 -18 0.6 -21.4 -1.3 -4.7 -2.1 -6.5 -3 -6.5 -0.5 0 -0.6 -0.4 -0.3 -1 0.9 -1.4 -4.7 -1.2 -6.5 0.3 -4.8 3.9 -6.7 25.1 -2.6 29.6 1.1 1.2 1.5 2.1 1 2.2 -2 0.2 4.3 1.7 6.6 1.6 1.6 -0.1 2.6 -0.9 2.9 -2.2z"/>
  <path d="M544.8 567.9 c-2.6 -2.7 -4.5 -4.9 -4.2 -4.9 0.2 0 -0.5 -1.8 -1.6 -4 -1.1 -2.1 -2 -4.6 -2 -5.5 0 -1 -1 -1.5 -2.7 -1.6 -1.6 0 -13.7 -0.1 -27 -0.2 -15.2 0 -24.3 -0.5 -24.3 -1.1 0 -0.5 0.8 -3.5 1.9 -6.5 1 -3.1 2.4 -7.6 3.1 -10.1 2.3 -8.5 2.5 -8.7 7.2 -9.2 2.4 -0.3 11.6 -0.4 20.6 -0.3 12.4 0.2 16.6 -0.1 17.6 -1.1 0.7 -0.7 1.6 -4.1 2 -7.6 0.9 -7.9 2.6 -14.8 3.6 -14.8 0.5 0 1.1 -1.3 1.5 -3 0.4 -1.6 1.1 -3 1.6 -3 0.5 0 0.9 -0.6 0.9 -1.3 0 -1.7 5.2 -6.5 8.5 -7.7 3.4 -1.3 11.4 1.9 12.2 5 0.3 1.1 1.2 2 1.9 2 0.8 0 1.4 0.6 1.4 1.3 0 0.6 0.9 3 1.9 5.2 1.7 3.6 3.1 10.7 4.6 24.4 0.3 2.4 0.1 8 -0.5 12.5 -1.4 10.9 -1.5 11.4 -2.3 12.2 -0.4 0.4 -0.7 1.7 -0.7 2.9 0 1.2 -1.6 5.4 -3.5 9.3 -3.7 7.5 -6.3 9.7 -13.4 11.3 -3.2 0.7 -3.8 0.4 -8.3 -4.2z m13.6 -26.3 c1 -2.3 2 -4.8 2.4 -5.6 1.2 -2.3 1.4 -13 0.4 -14.3 -0.5 -0.7 -1.2 -2.4 -1.6 -4 -0.4 -1.5 -1.5 -3.6 -2.6 -4.7 -1.9 -1.9 -2.2 -1.9 -5 -0.5 -4.6 2.4 -6 6.2 -6 16.5 0 8.9 1.3 14.3 4.1 17.3 2.2 2.3 6.4 -0.1 8.3 -4.7z"/>
  <path d="M216.3 517.6 c-3.4 -0.6 -5.3 -1.4 -5.3 -2.3 0 -0.7 -0.7 -1.6 -1.6 -2 -0.9 -0.3 -1.4 -1.3 -1.1 -2.4 0.3 -1.1 0.1 -2.2 -0.5 -2.5 -1.7 -1.1 -4.9 -9.3 -5.5 -14.2 -0.3 -2.6 -0.6 -10.5 -0.6 -17.7 0 -21.2 3.1 -32.4 11.1 -40.7 3.3 -3.3 4 -3.6 7.9 -3.1 11.1 1.2 18.2 18.4 18.3 43.8 0 5 0.5 9.7 1 10.5 0.7 1.1 1 1.1 1 0.2 0 -1 3 -1.2 13.3 -1.1 7.3 0.2 13.8 0 14.4 -0.4 0.6 -0.4 2.2 -0.3 3.5 0.1 1.2 0.5 6.7 0.8 12.1 0.7 6.1 0 9.7 0.3 9.7 1 0 0.6 0.3 0.6 0.8 -0.1 0.4 -0.7 1.5 -0.8 3 -0.3 2.5 1 2.5 3 -0.5 16.5 -1.8 8.1 -3.6 11.2 -5.5 9.7 -0.7 -0.5 -2.4 -0.8 -3.8 -0.8 -13.6 0.9 -16.3 0.8 -15.5 -0.5 0.3 -0.5 -0.3 -1 -1.4 -1 -1.2 0 -2.1 0.5 -2.1 1 0 1.4 -22.2 1 -23.2 -0.4 -0.4 -0.6 -1.1 -0.6 -2.1 0.2 -0.7 0.7 -1.6 0.9 -1.9 0.7 -1 -1 -9.8 -1.4 -9.3 -0.4 0.4 0.5 -0.3 0.9 -1.3 0.9 -1.1 0 -2.5 0.7 -3.2 1.5 -2.6 3.1 -6.3 4.1 -11.7 3.1z m9.5 -30.6 c1.8 -5.1 2.2 -8.1 1.9 -14 -0.2 -4.1 -0.8 -8.4 -1.4 -9.5 -0.6 -1.1 -1.6 -3.2 -2.3 -4.7 -1.2 -2.5 -1.5 -2.6 -4.4 -1.5 -4.6 1.9 -6.9 7.3 -7.3 17.6 -0.4 13.3 2.1 19.2 8.2 18.8 2.7 -0.2 3.2 -0.8 5.3 -6.7z"/>
  <path d="M416.3 479.6 c-1.5 -1.7 1.4 -10 8.1 -23.1 2.5 -4.9 4.6 -9.6 4.6 -10.5 0 -0.8 0.9 -2.8 1.9 -4.4 1.1 -1.7 1.7 -3.4 1.4 -3.9 -0.3 -0.5 -0.1 -1.2 0.4 -1.6 0.5 -0.3 2.7 -4.2 4.8 -8.6 3.9 -8.4 6.4 -13.6 8.2 -17 0.5 -1.1 1.7 -3.6 2.5 -5.5 0.8 -1.9 2.7 -6 4.1 -9.1 1.5 -3.1 2.7 -6.3 2.7 -7.2 0 -1 0.4 -1.7 1 -1.7 0.5 0 1.2 -1.1 1.6 -2.5 0.3 -1.3 1.2 -2.9 2 -3.6 0.8 -0.6 1.4 -1.9 1.4 -2.9 0 -1.4 3.4 -8.5 10.7 -22 0.7 -1.4 1.3 -3 1.3 -3.7 0 -1.5 3.3 -7.7 4.3 -8.1 0.4 -0.2 0.7 -1.2 0.7 -2.2 0 -1 0.5 -2.2 1 -2.5 0.6 -0.3 1 -1.5 1 -2.6 0 -1 0.4 -1.9 0.9 -1.9 0.5 0 1.2 -8.3 1.4 -18.7 0.3 -10.4 0.8 -20.6 1.2 -22.8 1.2 -7.3 5.9 -17.6 10 -22.1 3.7 -4 4.3 -4.3 8.2 -3.9 2.9 0.3 5.1 1.3 7 3.2 3.4 3.4 6.5 8.1 6.8 10.2 0.1 0.9 0.7 3 1.4 4.6 2.1 4.9 2.6 9.6 1.1 10.5 -1.1 0.7 -1.1 1.2 -0.1 2.3 1.8 2.2 1.6 25.8 -0.4 33.3 -1.7 6.6 -7.5 18.6 -8.9 18.4 -0.5 -0.1 -1.2 0.4 -1.7 1.2 -0.5 0.7 -1.3 1.3 -1.9 1.3 -0.6 0 -1.4 0.6 -1.8 1.2 -1 1.6 -7.4 0 -9.2 -2.2 -2 -2.4 -2.8 -1.8 -5.5 4.3 -1.5 3.1 -3 6.4 -3.6 7.2 -0.5 0.8 -1.2 2.2 -1.5 3 -0.3 0.8 -3 6.5 -5.9 12.5 -8.7 18.1 -13.5 28.4 -13.5 29.2 0 0.5 -0.9 1.9 -2 3.3 -1.1 1.4 -2 3.4 -2 4.5 0 1.1 -0.9 3.1 -2 4.5 -1.1 1.4 -2 3.2 -2.1 4 0 0.8 -0.9 2.9 -2 4.5 -1 1.7 -2.3 4.1 -2.9 5.5 -4 9.5 -9.6 20.7 -10.9 21.8 -0.8 0.6 -1.2 1.2 -0.9 1.2 0.9 0 -3.8 11.8 -5.9 14.9 -1 1.4 -2.3 3.8 -3 5.4 -1.2 2.8 -3.8 3.6 -4.6 1.5 -0.3 -1 -1.3 -0.9 -4.1 0.5 -4.3 2 -3.8 2 -5.3 0.3z m87.4 -151.3 c0.4 -1 1 -2.1 1.5 -2.4 0.5 -0.3 1.6 -3.5 2.4 -7 1.7 -7 1.1 -18 -1 -20.2 -0.7 -0.6 -1.5 -1.9 -1.8 -2.8 -0.4 -0.9 -1.9 -2 -3.4 -2.3 -3.3 -0.9 -5.8 1.7 -7.5 7.8 -1.4 5.3 -1.5 19.4 0 20.9 0.6 0.6 1.1 2.4 1.1 4 0 1.5 0.3 2.6 0.8 2.4 0.4 -0.3 1.6 -0.1 2.7 0.4 3.2 1.2 4.5 1 5.2 -0.8z"/>
  <path d="M474 479.8 c0 -0.7 0.9 -3.1 1.9 -5.2 1.1 -2.1 2.3 -5.2 2.7 -6.9 0.3 -1.8 0.9 -3.4 1.3 -3.7 0.7 -0.5 7.6 -14.6 9.1 -18.5 0.5 -1.1 3.6 -7.7 6.9 -14.6 3.4 -6.9 6.1 -13.1 6.1 -13.8 0 -0.6 0.9 -2.1 2 -3.3 1.1 -1.2 2 -3 2 -4 0 -1 0.4 -1.8 0.8 -1.8 1.8 0 3.6 -8.2 3.9 -18.5 0.2 -7.1 1.1 -13.5 2.4 -18 2.3 -8.1 6.3 -16.7 8.4 -18.5 0.8 -0.7 1.5 -1.9 1.5 -2.6 0 -0.8 0.9 -1.4 2 -1.4 1.1 0 2 -0.6 2 -1.2 0 -1 0.2 -1 0.9 0 0.5 0.8 1.7 1.1 3.4 0.7 3.8 -1 6.8 1.5 10.9 9.2 4.6 8.5 6 16.3 6.1 34.3 0.1 10.4 -0.3 14.5 -1.6 18 -0.9 2.5 -1.7 5.3 -1.7 6.3 0 0.9 -0.4 1.7 -1 1.7 -0.5 0 -0.7 0.6 -0.4 1.4 0.3 0.7 -0.2 2 -1 2.9 -0.9 0.9 -1.6 2.1 -1.6 2.7 0 1.9 -6.1 9.1 -7.3 8.7 -0.7 -0.2 -2.2 0.2 -3.6 0.9 -2.4 1.3 -6.1 0.4 -6.1 -1.5 0 -0.5 -0.9 -1.1 -2 -1.4 -1.1 -0.3 -2.3 -1.3 -2.7 -2.4 -1 -3 -2.4 -4.2 -3.9 -3.6 -0.8 0.3 -1.4 1.3 -1.4 2.2 0 0.9 -0.4 2.1 -0.8 2.7 -0.5 0.5 -1.7 3.2 -2.7 5.9 -1 2.8 -2.3 5.7 -3 6.5 -0.7 0.8 -1.6 2.5 -1.9 3.8 -0.4 1.2 -1.2 2.2 -1.7 2.2 -0.5 0 -0.9 0.7 -0.9 1.5 0 0.8 -0.4 2.3 -1 3.3 -1.2 2.1 -3.9 9 -3.9 9.8 0 0.3 -1 2 -2.3 3.7 -1.3 1.8 -3.2 5.3 -4.2 8 l-1.8 4.7 -4.8 0 c-2.6 0 -6.2 0.3 -7.9 0.6 -2.3 0.5 -3.1 0.3 -3.1 -0.8z m60.5 -74.4 c2.5 -4.9 3.5 -21.2 1.4 -25.3 -2.3 -4.4 -4.4 -6.8 -5.7 -6.3 -0.6 0.2 -1.2 -0.2 -1.2 -0.8 0 -1.3 -2.6 0.9 -2.7 2.4 -0.1 0.5 -0.5 1.2 -1.1 1.5 -1.8 1.2 -4.2 10.6 -4.2 16.7 0 6.7 1.8 12.2 5.1 15.3 2.9 2.7 5.8 1.5 8.4 -3.5z"/>
  <path d="M303.2 464.8 c-0.7 -0.7 -1.2 -1.9 -1.2 -2.7 0 -0.9 -1.1 -4 -2.5 -6.9 -1.3 -2.8 -2.7 -6.8 -3.1 -8.7 -0.3 -1.9 -1 -3.5 -1.5 -3.5 -0.5 0 -0.9 -0.7 -0.9 -1.5 0 -0.8 -0.4 -1.5 -1 -1.5 -0.5 0 -1 -0.7 -1 -1.6 0 -0.8 -1.1 -4 -2.5 -7 -1.4 -3 -2.5 -6 -2.5 -6.8 0 -0.7 -1.1 -3.5 -2.5 -6.1 -1.3 -2.7 -2.7 -6.2 -3 -7.7 -0.4 -1.5 -1.1 -2.8 -1.6 -2.8 -0.5 0 -0.9 -0.8 -0.9 -1.9 0 -1 -0.7 -2.4 -1.6 -3.2 -0.8 -0.7 -1.3 -2.1 -1.1 -3.1 0.3 -1 0 -1.8 -0.7 -1.8 -2.9 0 -3.6 -12.7 -3.6 -67.4 0 -43.9 -0.3 -54.5 -1.3 -54.9 -1.8 -0.7 -8.2 -14 -9.6 -20.2 -2.2 -9 -2.5 -25.1 -0.6 -34.5 0.9 -4.7 1.9 -10.2 2.2 -12.3 0.3 -2.1 1.1 -4.1 1.9 -4.4 0.8 -0.3 1.4 -1.4 1.4 -2.4 0 -1 0.5 -1.9 1 -1.9 0.6 0 1 -0.7 1 -1.6 0 -0.9 1.6 -3.2 3.6 -5 2.8 -2.7 4.4 -3.4 7.5 -3.4 3.4 0 4.6 0.7 8.2 4.5 2.3 2.4 4.3 5.4 4.4 6.6 0.1 1.2 0.9 3.7 1.8 5.6 0.9 1.8 2.1 6.1 2.6 9.5 0.6 3.4 1.1 6.4 1.3 6.7 0.9 1.5 -1.5 30.1 -2.8 34.1 -2.3 7.2 -4.6 12 -5.6 12 -0.6 0 -1 0.5 -1 1.2 0 0.6 -0.8 2 -1.8 3.1 -1.6 1.7 -1.7 6.1 -2.2 51 -0.4 39.7 -0.2 49.8 0.8 52.7 0.8 1.9 1.6 4.7 1.9 6.2 0.3 1.5 1.1 3.3 1.9 3.9 0.8 0.6 1.4 1.8 1.4 2.6 0 0.8 1 3.5 2.1 6.1 4 8.6 6.1 13.7 7.6 18.2 0.8 2.5 2.4 6.1 3.5 7.9 1.1 1.9 3.1 6.4 4.4 9.9 2.4 6.5 2.5 7.8 0.4 18.2 -0.6 3 -1.4 7.6 -1.9 10.2 -0.9 5.5 -1.3 6.2 -2.9 4.6z m-24.2 -213.8 c0 -0.5 0.7 -1 1.5 -1 0.8 0 1.5 -0.7 1.5 -1.5 0 -0.8 0.3 -1.5 0.8 -1.5 1.5 0 3.4 -5.7 3.9 -11.8 0.5 -5.5 0.2 -7 -2.1 -11.6 -2.6 -5.1 -6.2 -8.1 -8.2 -6.8 -2.6 1.8 -5.7 10.9 -5.7 16.7 0.1 8.7 0.6 10.7 3.9 14.8 2.9 3.7 4.4 4.6 4.4 2.7z"/>
  <path d="M322 357 c0 -1.6 -0.4 -3 -0.8 -3 -0.4 0 -1.6 -2.6 -2.7 -5.7 -1 -3.2 -2.5 -6.5 -3.2 -7.4 -0.7 -0.8 -1.3 -2.3 -1.3 -3.2 0 -0.9 -0.4 -1.9 -1 -2.2 -0.5 -0.3 -1 -1.4 -1 -2.3 0 -0.9 -1.2 -3.9 -2.7 -6.7 l-2.6 -5 0.3 -56 c0.1 -30.8 0.3 -61.4 0.4 -68 l0.2 -12 -3.8 -5.5 c-2.1 -3 -4.1 -7.1 -4.4 -9 -0.4 -1.9 -1 -3.9 -1.4 -4.5 -1.5 -2 -2.1 -8.7 -2.1 -22.7 0.1 -14.1 1.9 -25.9 5.1 -31.8 2.8 -5.3 7.3 -10.9 9 -11.5 5.3 -1.7 16 2.8 16 6.7 0 0.6 0.6 1.9 1.4 2.7 1.3 1.6 2.8 6.4 4.7 15.1 1.4 6.1 1.2 29 -0.2 34.3 -3.1 12 -4.2 15.3 -5.4 16.2 -0.7 0.6 -1.6 2.5 -1.9 4.3 -0.4 1.7 -1.3 3.2 -2.1 3.2 -0.7 0 -1.6 1.1 -1.9 2.4 -1.3 5.4 -2.4 121.1 -1.1 125.9 0.4 1.5 1.1 2.7 1.6 2.7 0.5 0 0.9 0.9 0.9 2.1 0 1.1 1.6 5.5 3.6 9.7 2.2 4.8 3.6 9.2 3.5 11.6 0 5 -1.1 11.6 -2.2 13.8 -0.5 1 -1 3.4 -1.1 5.3 -0.1 2.7 -0.6 3.5 -2 3.5 -1.3 0 -1.8 -0.8 -1.8 -3z m-4.3 -196.6 c-0.4 -0.4 0.2 -1.9 1.3 -3.4 2.5 -3.6 3.7 -16 2.1 -22.7 -0.9 -3.7 -2.1 -5.6 -4.4 -7.3 -2 -1.5 -3.2 -1.9 -3.5 -1.2 -0.2 0.7 -0.9 1.2 -1.5 1.2 -0.7 0 -2.3 2.4 -3.6 5.3 -1.8 3.9 -2.4 6.7 -2.2 11.2 0.4 11.3 3.5 17.4 9 17.5 1.9 0 3.1 -0.3 2.8 -0.6z"/>
  <path d="M440.5 343.3 c-0.3 -1 -0.1 -1.9 0.4 -2.1 0.6 -0.2 1.1 -1.8 1.1 -3.6 0 -1.8 0.4 -3.6 0.9 -4.1 0.5 -0.6 1.1 -3 1.4 -5.5 0.3 -2.5 1 -6.5 1.6 -9 0.5 -2.5 1.5 -6.7 2.1 -9.5 0.6 -2.7 1.5 -7.2 2 -10 1.9 -11 3.2 -15.2 6.6 -22.1 2 -4 3.7 -8.9 3.9 -10.9 0.2 -1.9 0.5 -20.8 0.6 -42 l0.3 -38.5 -2.7 -2.8 c-1.4 -1.5 -3.1 -4 -3.7 -5.7 -1.7 -4.3 -5 -16.3 -4.8 -17.2 0.1 -0.5 -0.2 -4.6 -0.6 -9.3 -0.7 -8.6 1.2 -27.8 3.3 -32.5 0.5 -1.1 1.9 -4.6 3.2 -7.7 1.2 -3.2 2.9 -5.8 3.6 -5.8 0.7 0 1.3 -0.9 1.3 -2 0 -1.3 0.5 -1.8 1.5 -1.4 0.8 0.4 2.1 0.1 2.9 -0.5 3.2 -2.7 14.6 1.6 14.6 5.5 0 0.7 0.8 1.9 1.9 2.6 1.1 0.8 2.2 3.2 2.6 5.8 0.4 2.5 1.2 5 1.7 5.7 0.5 0.6 1.2 7.7 1.5 15.6 0.9 21.9 -2.9 38 -11.3 48 -2.3 2.8 -2.4 3.3 -2.5 22.3 -0.1 10.7 -0.3 20.6 -0.4 22.2 -0.1 1.5 -0.3 13.6 -0.4 26.8 -0.3 25.1 -0.5 26.3 -5.2 34.4 -0.5 0.8 -1.2 2.2 -1.5 3 -1 2.5 -3.1 7.2 -6.3 14.1 -1.7 3.7 -3.1 7.4 -3.1 8.2 0 0.9 -1.7 5.3 -3.9 9.9 -2.1 4.6 -4.2 9.4 -4.6 10.6 -0.4 1.3 -1.6 3.3 -2.6 4.3 -1 1 -1.9 2.6 -1.9 3.4 0 2.1 -2.6 1.9 -3.5 -0.2z m31.3 -184 c3.3 -4.7 4.5 -10.1 4 -17.7 -0.6 -8 -3.8 -15.6 -6.7 -15.6 -6.2 0 -10.4 18.3 -6.6 29 2.7 7.7 5.9 9.1 9.3 4.3z"/>
 </g>
</svg>